<?xml version="1.0" standalone="no"?>
<!DOCTYPE svg PUBLIC "-//W3C//DTD SVG 20010904//EN"
 "http://www.w3.org/TR/2001/REC-SVG-20010904/DTD/svg10.dtd">
<svg version="1.0" xmlns="http://www.w3.org/2000/svg"
 width="256.000000pt" height="256.000000pt" viewBox="0 0 256.000000 256.000000"
 preserveAspectRatio="xMidYMid meet">

<g transform="translate(0.000000,256.000000) scale(0.100000,-0.100000)"
fill="#000000" stroke="none">
<path d="M1067 2260 c-126 -32 -213 -130 -232 -263 -8 -55 6 -49 -183 -72
-158 -18 -204 -37 -267 -107 -67 -75 -75 -113 -75 -357 0 -185 2 -210 21 -251
29 -65 64 -106 112 -134 75 -44 340 -110 547 -137 122 -16 457 -16 580 0 226
29 473 92 550 139 49 30 104 103 120 160 5 20 10 127 10 238 0 245 -7 273 -89
355 -66 65 -111 81 -286 99 -147 15 -141 13 -149 68 -14 105 -84 200 -181 244
-46 21 -66 23 -245 25 -107 1 -212 -2 -233 -7z m431 -161 c33 -16 49 -32 63
-63 35 -77 54 -72 -281 -72 -286 0 -300 1 -300 18 0 43 51 107 100 127 14 5
103 10 199 10 159 1 179 -1 219 -20z m-164 -828 c23 -25 23 -76 1 -101 -24
-26 -86 -27 -109 -1 -23 25 -23 76 -1 101 24 26 86 27 109 1z"/>
<path d="M382 758 c4 -192 14 -229 77 -301 74 -84 177 -106 594 -128 339 -19
847 14 952 60 61 27 111 76 142 139 27 55 28 64 32 231 3 166 2 174 -15 166
-111 -47 -385 -112 -574 -136 -132 -17 -485 -17 -610 0 -192 25 -456 85 -555
127 -19 8 -37 14 -41 14 -3 0 -4 -78 -2 -172z"/>
</g>
</svg>
