<?xml version="1.0" standalone="no"?>
<!DOCTYPE svg PUBLIC "-//W3C//DTD SVG 20010904//EN"
 "http://www.w3.org/TR/2001/REC-SVG-20010904/DTD/svg10.dtd">
<svg version="1.0" xmlns="http://www.w3.org/2000/svg"
 width="256.000000pt" height="256.000000pt" viewBox="0 0 256.000000 256.000000"
 preserveAspectRatio="xMidYMid meet">

<g transform="translate(0.000000,256.000000) scale(0.100000,-0.100000)"
fill="#000000" stroke="none">
<path d="M834 2406 c-89 -22 -152 -72 -196 -156 l-23 -45 0 -910 c0 -887 1
-911 20 -950 27 -55 97 -122 153 -148 45 -21 61 -22 447 -25 444 -4 504 1 579
49 48 30 103 98 123 152 8 24 12 266 12 918 1 1004 6 942 -80 1030 -93 96 -82
94 -564 96 -310 1 -433 -1 -471 -11z m226 -188 c0 -39 5 -57 22 -75 21 -22 27
-23 193 -23 158 0 174 2 198 20 21 17 27 31 29 73 l3 52 90 3 c105 3 146 -12
182 -67 l23 -34 0 -872 0 -872 -23 -34 c-46 -69 -45 -69 -497 -69 -452 0 -451
0 -497 69 l-23 34 0 872 0 872 23 34 c35 53 77 69 185 69 l92 0 0 -52z"/>
<path d="M1104 536 c-49 -22 -60 -80 -22 -116 20 -19 34 -20 200 -20 165 0
179 1 198 20 12 12 20 33 20 55 0 29 -6 39 -32 55 -29 18 -51 20 -183 20 -103
-1 -160 -5 -181 -14z"/>
</g>
</svg>
