<?xml version="1.0" standalone="no"?>
<!DOCTYPE svg PUBLIC "-//W3C//DTD SVG 20010904//EN"
 "http://www.w3.org/TR/2001/REC-SVG-20010904/DTD/svg10.dtd">
<svg version="1.0" xmlns="http://www.w3.org/2000/svg"
 width="256.000000pt" height="256.000000pt" viewBox="0 0 256.000000 256.000000"
 preserveAspectRatio="xMidYMid meet">

<g transform="translate(0.000000,256.000000) scale(0.100000,-0.100000)"
fill="#000000" stroke="none">
<path d="M1128 2327 c-60 -17 -111 -56 -132 -101 -9 -20 -24 -71 -32 -113 -8
-42 -19 -83 -26 -90 -6 -8 -42 -32 -80 -55 -75 -45 -72 -45 -191 -2 -73 25
-81 26 -134 14 -77 -17 -118 -59 -198 -199 -60 -105 -65 -120 -65 -173 0 -79
25 -125 103 -189 34 -29 65 -57 69 -63 4 -6 8 -52 8 -102 l0 -92 -71 -63 c-90
-80 -112 -122 -107 -204 3 -53 12 -76 63 -166 71 -125 123 -180 190 -199 43
-12 54 -11 119 9 155 49 133 49 219 0 84 -48 89 -57 106 -158 14 -87 39 -130
94 -168 57 -38 116 -47 261 -41 179 8 241 57 270 214 9 48 21 93 26 100 16 18
146 94 162 94 8 0 43 -11 79 -25 91 -36 128 -40 188 -20 65 21 108 70 184 208
49 88 58 113 59 155 0 84 -16 114 -103 193 l-79 71 0 93 0 93 71 63 c86 76
109 118 109 196 0 53 -6 69 -65 175 -71 126 -121 180 -182 197 -55 16 -65 14
-168 -20 l-92 -32 -58 29 c-102 52 -115 68 -132 164 -17 102 -44 148 -110 187
-45 26 -56 28 -178 30 -85 2 -146 -2 -177 -10z m337 -701 c161 -80 257 -262
226 -432 -36 -198 -191 -341 -382 -352 -219 -13 -401 133 -439 350 -29 164 66
354 215 431 76 39 116 47 213 43 83 -3 101 -7 167 -40z"/>
</g>
</svg>
